<svg xmlns="http://www.w3.org/2000/svg" xmlns:xlink="http://www.w3.org/1999/xlink" version="1.1" x="0px" y="0px" viewBox="0 0 100 100" enable-background="new 0 0 100 100" fill = "white" xml:space="preserve"><g><path fill="none" stroke="#ffffff" stroke-width="5" stroke-miterlimit="10" d="M3,41.5c5.874,0,5.874,6,11.748,6s5.874-6,11.749-6   c5.872,0,5.872,6,11.744,6c5.874,0,5.874-6,11.748-6c5.876,0,5.876,6,11.752,6c5.874,0,5.874-6,11.748-6c5.878,0,5.878,6,11.756,6   s5.878-6,11.756-6"/></g><g><path fill="none" stroke="#ffffff" stroke-width="5" stroke-miterlimit="10" d="M3,51.5c5.874,0,5.874,6,11.748,6s5.874-6,11.749-6   c5.872,0,5.872,6,11.744,6c5.874,0,5.874-6,11.748-6c5.876,0,5.876,6,11.752,6c5.874,0,5.874-6,11.748-6c5.878,0,5.878,6,11.756,6   s5.878-6,11.756-6"/></g></svg>
