<svg xmlns="http://www.w3.org/2000/svg" xmlns:xlink="http://www.w3.org/1999/xlink" version="1.1" x="0px" y="0px" viewBox="0 0 100 100" enable-background="new 0 0 100 100" xml:space="preserve"><g><path fill="none" stroke="#ffffff" stroke-linecap="round" stroke-linejoin="round" stroke-miterlimit="10" d="M25.375,88.375   c-0.859,0.16-1.584-0.767-1.744-1.506c0.219-0.055,0.438-0.317,0.609-0.372c-0.372-0.939-0.876-1.944-1.125-2.906   c-0.087-0.336,0.259-0.452,0.136-0.844c-0.085-0.271-0.448-0.449-0.602-0.653c-0.29-0.382-0.767-0.774-0.934-1.21   c-0.351-0.915-0.637-3.568-0.197-4.515c0.267-0.576,0.709-0.533,0.856-1.293c0.12-0.617,0.056-2.202-0.213-2.719   c-0.203-0.391-0.74-0.375-0.939-0.852c-0.235-0.562-0.069-2.085,0.027-2.736c0.228-1.542,1.75-1.113,1.472-2.918   c-0.11-0.716-0.717-1.515-0.383-2.238c0.322-0.696,1.449-0.684,1.891-1.207c0.975-1.156-1.126-0.654-0.766-2.274   c0.103-0.464,0.515-0.596,0.54-1.16c0.021-0.468-0.305-0.917-0.469-1.34c-0.3-0.775-0.23-1.839-0.532-2.506   c-0.187-0.414-0.549-0.244-0.73-0.529c-0.181-0.283-0.135-0.663-0.297-0.943l-6.85-39.903h35.75   c-0.138,1.715-4.546,3.334-3.131,5.527c0.611,0.947,1.872,1.059,2.638,1.723c0.42,0.364,0.696,1.002,1.087,1.402   c0.2,0.205,0.187,0.621,0.5,0.759c0.469,0.207,0.518-0.353,0.909-0.299c1.531,0.21,1.398,1.046,2.156,2.109   c0.32,0.448,1.117,0.849,1.322,1.304c0.37,0.817,0.003,1.515,0.518,2.353c0.305,0.496,0.77,0.907,1.122,1.375   c0.65,0.865,0.768,2.208,1.379,2.98c0.416,0.526,1.079,0.642,1.722,0.986c0.732,0.392,0.954,0.814,1.522,1.288   c0.714,0.596,0.93,0.814,1.378,1.494c0.458,0.695,0.391,1.189,1.36,1.268c0.132,0.67,1.506,0.938,1.986,1.607   c0.588,0.82,0.875,2.142,1.404,2.875c0.322,0.446,0.809,0.513,1.133,0.875c0.305,0.34,0.202,0.799,0.463,1.125   c0.345,0.43,0.774,0.367,1.005,0.616c0.343,0.368,0.258,1.018,0.616,1.417c0.634,0.708,1.669,0.241,2.416,0.585   c1.254,0.579,0.722,1.439,0.991,2.509c0.137,0.543,0.463,0.726,0.753,1.153c0.535,0.787,0.542,0.236,0.497,1.379   c-0.058,1.445-0.292,2.492-0.105,3.946c3.728-0.406,4.438,5.546,4.882,7.884c1.607-0.046,1.274,0.111,2.452,0.76   c0.438,0.241,1.375,0.219,1.605,0.909c-0.782,0.451-2.184,0.064-2.315,1.319c0.496,0.157,0.956,0.428,1.091,0.878   c-0.907,0.107-1.822,0.416-2.71,0.441c-0.206,0.523-0.145,1.123,0.091,1.581c-0.86,0.606-1.877,0.559-1.534,1.722   c0.162,0.548,0.901,0.018,0.552,1.025c-0.183,0.527-1.085,0.872-1.374,1.35c1.818,0.927-1.546,3.202-0.293,4.449   c-0.553,1.552-2.096,2.473-2.597,4.091c-0.313,1.012,0,1.144,0.281,2.09c1.302-0.171,0.571,2.13,0.2,2.747   c-0.6,0.999-1.547,0.91-2.597,0.895c-1.903-0.028-3.945-2.314-5.816-0.85c-2.166,1.694,0.401,3.929-0.666,6.116   c-0.452,0.926-1.248,1.469-1.896,0.246c-0.251-0.473-0.223-1.232-0.494-1.762c-0.189-0.371-0.479-0.489-0.506-0.994   c-0.191,0.018-0.357,0.1-0.497,0.247L25.375,88.375z"/></g></svg>
