<svg xmlns="http://www.w3.org/2000/svg" xmlns:xlink="http://www.w3.org/1999/xlink" version="1.1" x="0px" y="0px" viewBox="0 0 120 120" enable-background="new 0 0 120 120" fill= "white" xml:space="preserve"><path d="M51.6,112.6c0,0-15.6-3-8-20c0,0,4.2-6.4,3-15.2c0,0,7.2,4.4,5.7,10.4c0,0,0.1,1.1,1.8-0.4c0,0,9.9-8.5,8.7-18.2  c0,0-0.6-4.1-1.5-5.4c0,0,10.3,5.1,7.9,17.1c0,0-1.8,6.2-1.6,7.8c0,0,0.6,4.8,3.6,7c0,0,0.6,0.7,0.7-0.4c0,0-1.7-3.9-0.5-8.3  c0,0,1.9-4.1,4.4-5.2c0,0-1.6,8.4,1.9,10.7c0,0,6.9,6.6,2.5,14.9c0,0-3.8,3.8-4.6,3.8c0,0-0.3,0.8,0.8,0.6c0,0,26.2-5.8,25.8-27.8  c0,0-1-9.9-4.9-16.8c0,0-7.7-15.6-5.8-25.4c0,0,1.2-5.1,2.6-6.2c0,0,0-1.1-1.1-0.6c0,0-18.6,8.1-15.6,22.6c0,0-18.2-14.1-18.9-34.1  c0,0,0.8-10.9,4.5-16.1c0,0,0.6-1.2-0.9-0.4c0,0-27.6,9.9-19.5,34.3c0,0,2.8,8.5,3.5,12.5c0,0,1.6,12.6-5.1,18.4  c0,0,4.9-6.7-0.4-17.9c0,0-6.8-10.2-10.4-10.6c0,0-1.2-0.4-0.7,1c0,0,2.5,13.4-1.2,19.7c0,0-14.2,14.3-9.6,28.1  c0,0,0.5,15.2,32.4,21.2C51.2,113.5,52.4,113.5,51.6,112.6z"></path></svg>
